<svg xmlns="http://www.w3.org/2000/svg" width="2154" height="794" viewBox="0 0 2154 794" font-family="Helvetica, Arial, sans-serif">
<defs><marker id="tip" markerWidth="9" markerHeight="8" refX="8" refY="4" orient="auto"><path d="M0,0 L9,4 L0,8 z" fill="#555"/></marker></defs>
<rect width="100%" height="100%" fill="white"/>
<rect x="37.8" y="75.6" width="2078.7" height="113.4" fill="none" stroke="#7f7f7f"/>
<rect x="37.8" y="75.6" width="37.8" height="113.4" fill="#f2f2f2" stroke="#7f7f7f"/>
<g transform="rotate(-90 56.7 132.3)"><text x="56.7" y="132.3" font-size="12" text-anchor="middle" dominant-baseline="middle" font-weight="bold">Employee</text></g>
<rect x="37.8" y="189.0" width="2078.7" height="226.8" fill="none" stroke="#7f7f7f"/>
<rect x="37.8" y="189.0" width="37.8" height="226.8" fill="#f2f2f2" stroke="#7f7f7f"/>
<g transform="rotate(-90 56.7 302.4)"><text x="56.7" y="302.4" font-size="12" text-anchor="middle" dominant-baseline="middle" font-weight="bold">Line manager</text></g>
<rect x="37.8" y="415.7" width="2078.7" height="113.4" fill="none" stroke="#7f7f7f"/>
<rect x="37.8" y="415.7" width="37.8" height="113.4" fill="#f2f2f2" stroke="#7f7f7f"/>
<g transform="rotate(-90 56.7 472.4)"><text x="56.7" y="472.4" font-size="12" text-anchor="middle" dominant-baseline="middle" font-weight="bold">Finance team</text></g>
<rect x="37.8" y="529.1" width="2078.7" height="113.4" fill="none" stroke="#7f7f7f"/>
<rect x="37.8" y="529.1" width="37.8" height="113.4" fill="#f2f2f2" stroke="#7f7f7f"/>
<g transform="rotate(-90 56.7 585.8)"><text x="56.7" y="585.8" font-size="12" text-anchor="middle" dominant-baseline="middle" font-weight="bold">Finance director</text></g>
<rect x="37.8" y="642.5" width="2078.7" height="113.4" fill="none" stroke="#7f7f7f"/>
<rect x="37.8" y="642.5" width="37.8" height="113.4" fill="#f2f2f2" stroke="#7f7f7f"/>
<g transform="rotate(-90 56.7 699.2)"><text x="56.7" y="699.2" font-size="12" text-anchor="middle" dominant-baseline="middle" font-weight="bold">System</text></g>
<rect x="699.2" y="41.6" width="755.9" height="30.2" fill="none" stroke="none"/>
<text x="1077.2" y="56.7" font-size="16" text-anchor="middle" dominant-baseline="middle" font-weight="bold">Expense claims</text>
<rect x="113.4" y="113.4" width="94.5" height="37.8" rx="18.9" fill="#ffe5c2" stroke="#d49f00"/>
<text x="160.6" y="132.3" font-size="10" text-anchor="middle" dominant-baseline="middle">Start</text>
<rect x="283.5" y="103.9" width="94.5" height="56.7" fill="#dcdcdc" stroke="#898989"/>
<text x="330.7" y="126.3" font-size="10" text-anchor="middle" dominant-baseline="middle">Fill in claim</text><text x="330.7" y="138.3" font-size="10" text-anchor="middle" dominant-baseline="middle">form</text>
<rect x="453.5" y="103.9" width="94.5" height="56.7" fill="#dcdcdc" stroke="#898989"/>
<text x="500.8" y="126.3" font-size="10" text-anchor="middle" dominant-baseline="middle">Submit claim to</text><text x="500.8" y="138.3" font-size="10" text-anchor="middle" dominant-baseline="middle">manager</text>
<rect x="623.6" y="217.3" width="94.5" height="56.7" fill="#dcdcdc" stroke="#898989"/>
<text x="670.9" y="239.7" font-size="10" text-anchor="middle" dominant-baseline="middle">Check claim</text><text x="670.9" y="251.7" font-size="10" text-anchor="middle" dominant-baseline="middle">against policy</text>
<polygon points="793.7,245.7 840.9,217.3 888.2,245.7 840.9,274.0" fill="#ffe5c2" stroke="#d49f00"/>
<text x="840.9" y="245.7" font-size="10" text-anchor="middle" dominant-baseline="middle">Within policy?</text>
<rect x="963.8" y="217.3" width="94.5" height="56.7" fill="#dcdcdc" stroke="#898989"/>
<text x="1011.0" y="245.7" font-size="10" text-anchor="middle" dominant-baseline="middle">Approve claim</text>
<rect x="963.8" y="330.7" width="94.5" height="56.7" fill="#dcdcdc" stroke="#898989"/>
<text x="1011.0" y="353.1" font-size="10" text-anchor="middle" dominant-baseline="middle">Send claim back</text><text x="1011.0" y="365.1" font-size="10" text-anchor="middle" dominant-baseline="middle">with note</text>
<rect x="1133.9" y="103.9" width="94.5" height="56.7" fill="#dcdcdc" stroke="#898989"/>
<text x="1181.1" y="126.3" font-size="10" text-anchor="middle" dominant-baseline="middle">Correct the</text><text x="1181.1" y="138.3" font-size="10" text-anchor="middle" dominant-baseline="middle">claim</text>
<polygon points="1133.9,472.4 1181.1,444.1 1228.3,472.4 1181.1,500.8" fill="#ffe5c2" stroke="#d49f00"/>
<text x="1181.1" y="466.4" font-size="10" text-anchor="middle" dominant-baseline="middle">Over 500</text><text x="1181.1" y="478.4" font-size="10" text-anchor="middle" dominant-baseline="middle">pounds?</text>
<rect x="1303.9" y="557.5" width="94.5" height="56.7" fill="#dcdcdc" stroke="#898989"/>
<text x="1351.2" y="579.8" font-size="10" text-anchor="middle" dominant-baseline="middle">Review large</text><text x="1351.2" y="591.8" font-size="10" text-anchor="middle" dominant-baseline="middle">claim</text>
<polygon points="1474.0,585.8 1521.3,557.5 1568.5,585.8 1521.3,614.2" fill="#ffe5c2" stroke="#d49f00"/>
<text x="1521.3" y="585.8" font-size="10" text-anchor="middle" dominant-baseline="middle">Signed off?</text>
<rect x="1644.1" y="444.1" width="94.5" height="56.7" fill="#dcdcdc" stroke="#898989"/>
<text x="1691.3" y="466.4" font-size="10" text-anchor="middle" dominant-baseline="middle">Schedule</text><text x="1691.3" y="478.4" font-size="10" text-anchor="middle" dominant-baseline="middle">payment</text>
<rect x="1814.2" y="670.9" width="94.5" height="56.7" fill="#dcdcdc" stroke="#898989"/>
<text x="1861.4" y="687.2" font-size="10" text-anchor="middle" dominant-baseline="middle">Email</text><text x="1861.4" y="699.2" font-size="10" text-anchor="middle" dominant-baseline="middle">confirmation to</text><text x="1861.4" y="711.2" font-size="10" text-anchor="middle" dominant-baseline="middle">employee</text>
<rect x="1984.3" y="680.3" width="94.5" height="37.8" rx="18.9" fill="#ffe5c2" stroke="#d49f00"/>
<text x="2031.5" y="699.2" font-size="10" text-anchor="middle" dominant-baseline="middle">End</text>
<rect x="1644.1" y="566.9" width="94.5" height="37.8" rx="18.9" fill="#ffe5c2" stroke="#d49f00" stroke-dasharray="6 4"/>
<text x="1691.3" y="585.8" font-size="10" text-anchor="middle" dominant-baseline="middle">Not stated</text>
<polyline points="207.9,132.3 283.5,132.3" fill="none" stroke="#555" stroke-width="1.3" marker-end="url(#tip)"/>
<polyline points="378.0,132.3 453.5,132.3" fill="none" stroke="#555" stroke-width="1.3" marker-end="url(#tip)"/>
<polyline points="548.0,132.3 585.8,132.3 585.8,245.7 623.6,245.7" fill="none" stroke="#555" stroke-width="1.3" marker-end="url(#tip)"/>
<polyline points="718.1,245.7 793.7,245.7" fill="none" stroke="#555" stroke-width="1.3" marker-end="url(#tip)"/>
<polyline points="888.2,245.7 963.8,245.7" fill="none" stroke="#555" stroke-width="1.3" marker-end="url(#tip)"/>
<rect x="901.1" y="237.7" width="27" height="16" fill="white"/>
<text x="914.6" y="245.7" font-size="10" text-anchor="middle" dominant-baseline="middle">Yes</text>
<polyline points="840.9,274.0 840.9,359.1 963.8,359.1" fill="none" stroke="#555" stroke-width="1.3" marker-end="url(#tip)"/>
<rect x="830.9" y="292.5" width="20" height="16" fill="white"/>
<text x="840.9" y="300.5" font-size="10" text-anchor="middle" dominant-baseline="middle">No</text>
<polyline points="1058.3,359.1 1096.1,359.1 1096.1,132.3 1133.9,132.3" fill="none" stroke="#555" stroke-width="1.3" marker-end="url(#tip)"/>
<polyline points="1181.1,160.6 1181.1,173.9 500.8,173.9 500.8,160.6" fill="none" stroke="#555" stroke-width="1.3" marker-end="url(#tip)"/>
<polyline points="1058.3,245.7 1103.6,245.7 1103.6,472.4 1133.9,472.4" fill="none" stroke="#555" stroke-width="1.3" marker-end="url(#tip)"/>
<polyline points="1181.1,500.8 1181.1,585.8 1303.9,585.8" fill="none" stroke="#555" stroke-width="1.3" marker-end="url(#tip)"/>
<rect x="1167.6" y="519.2" width="27" height="16" fill="white"/>
<text x="1181.1" y="527.2" font-size="10" text-anchor="middle" dominant-baseline="middle">Yes</text>
<polyline points="1228.3,472.4 1644.1,472.4" fill="none" stroke="#555" stroke-width="1.3" marker-end="url(#tip)"/>
<rect x="1244.8" y="464.4" width="20" height="16" fill="white"/>
<text x="1254.8" y="472.4" font-size="10" text-anchor="middle" dominant-baseline="middle">No</text>
<polyline points="1398.4,585.8 1474.0,585.8" fill="none" stroke="#555" stroke-width="1.3" marker-end="url(#tip)"/>
<polyline points="1521.3,557.5 1521.3,472.4 1644.1,472.4" fill="none" stroke="#555" stroke-width="1.3" marker-end="url(#tip)"/>
<rect x="1507.8" y="523.0" width="27" height="16" fill="white"/>
<text x="1521.3" y="531.0" font-size="10" text-anchor="middle" dominant-baseline="middle">Yes</text>
<polyline points="1738.6,472.4 1776.4,472.4 1776.4,699.2 1814.2,699.2" fill="none" stroke="#555" stroke-width="1.3" marker-end="url(#tip)"/>
<polyline points="1908.7,699.2 1984.3,699.2" fill="none" stroke="#555" stroke-width="1.3" marker-end="url(#tip)"/>
<polyline points="1568.5,585.8 1644.1,585.8" fill="none" stroke="#555" stroke-width="1.3" marker-end="url(#tip)"/>
<rect x="1588.5" y="577.8" width="13" height="16" fill="white"/>
<text x="1595.0" y="585.8" font-size="10" text-anchor="middle" dominant-baseline="middle">?</text>
</svg>
